<?xml version="1.0" encoding="iso-8859-1"?>
<!-- Generator: Adobe Illustrator 19.0.0, SVG Export Plug-In . SVG Version: 6.00 Build 0)  -->
<svg version="1.1" id="Layer_1" xmlns="http://www.w3.org/2000/svg" xmlns:xlink="http://www.w3.org/1999/xlink" x="0px" y="0px"
	 viewBox="0 0 512 512" style="enable-background:new 0 0 512 512;" xml:space="preserve">
<g transform="translate(1)">
	<polygon style="fill:#B0B6BB;" points="144.067,366.933 144.067,503.467 502.467,503.467 502.467,145.067 365.933,145.067 
		365.933,366.933 	"/>
	<polygon style="fill:#7383BF;" points="7.533,8.533 7.533,366.933 144.067,366.933 365.933,366.933 365.933,145.067 365.933,8.533 
			"/>
	<path d="M144.067,375.467H139.8c-5.12,0-8.533-3.413-8.533-8.533s3.413-8.533,8.533-8.533h4.267c5.12,0,8.533,3.413,8.533,8.533
		S149.187,375.467,144.067,375.467z"/>
	<path d="M103.107,375.467H93.72c-5.12,0-8.533-3.413-8.533-8.533S88.6,358.4,93.72,358.4h9.387c5.12,0,8.533,3.413,8.533,8.533
		S108.227,375.467,103.107,375.467z M57.88,375.467h-9.387c-5.12,0-8.533-3.413-8.533-8.533s3.413-8.533,8.533-8.533h9.387
		c5.12,0,8.533,3.413,8.533,8.533S62.147,375.467,57.88,375.467z"/>
	<path d="M11.8,375.467H-1v-12.8c0-5.12,3.413-8.533,8.533-8.533c3.413,0,6.827,1.707,7.68,5.12c2.56,1.707,5.12,4.267,5.12,7.68
		C20.333,372.053,16.92,375.467,11.8,375.467z"/>
	<path d="M7.533,335.36c-5.12,0-8.533-3.413-8.533-8.533v-9.387c0-5.12,3.413-8.533,8.533-8.533s8.533,3.413,8.533,8.533v9.387
		C16.067,331.093,12.653,335.36,7.533,335.36z M7.533,290.133C2.413,290.133-1,286.72-1,281.6v-8.533
		c0-5.12,3.413-8.533,8.533-8.533s8.533,3.413,8.533,8.533v8.533C16.067,286.72,12.653,290.133,7.533,290.133z M7.533,245.76
		c-5.12,0-8.533-3.413-8.533-8.533v-9.387c0-5.12,3.413-8.533,8.533-8.533s8.533,3.413,8.533,8.533v9.387
		C16.067,241.493,12.653,245.76,7.533,245.76z M7.533,200.533C2.413,200.533-1,197.12-1,192v-9.387c0-5.12,3.413-8.533,8.533-8.533
		s8.533,3.413,8.533,8.533V192C16.067,197.12,12.653,200.533,7.533,200.533z M7.533,156.16c-5.12,0-8.533-3.413-8.533-8.533v-9.387
		c0-5.12,3.413-8.533,8.533-8.533s8.533,3.413,8.533,8.533v9.387C16.067,151.893,12.653,156.16,7.533,156.16z M7.533,110.933
		C2.413,110.933-1,107.52-1,102.4v-8.533c0-5.12,3.413-8.533,8.533-8.533s8.533,3.413,8.533,8.533v8.533
		C16.067,107.52,12.653,110.933,7.533,110.933z M7.533,66.56C2.413,66.56-1,63.147-1,58.027V48.64c0-5.12,3.413-8.533,8.533-8.533
		s8.533,3.413,8.533,8.533v9.387C16.067,62.293,12.653,66.56,7.533,66.56z"/>
	<path d="M7.533,21.333C2.413,21.333-1,17.92-1,12.8V0h12.8c5.12,0,8.533,3.413,8.533,8.533c0,3.413-1.707,6.827-5.12,7.68
		C14.36,19.627,10.947,21.333,7.533,21.333z"/>
	<path d="M325.827,17.067h-9.387c-5.12,0-8.533-3.413-8.533-8.533S311.32,0,316.44,0h9.387c5.12,0,8.533,3.413,8.533,8.533
		S330.093,17.067,325.827,17.067z M280.6,17.067h-8.533c-5.12,0-8.533-3.413-8.533-8.533S266.947,0,272.067,0h8.533
		c5.12,0,8.533,3.413,8.533,8.533S285.72,17.067,280.6,17.067z M236.227,17.067h-9.387c-5.12,0-8.533-3.413-8.533-8.533
		S221.72,0,226.84,0h9.387c5.12,0,8.533,3.413,8.533,8.533S240.493,17.067,236.227,17.067z M191,17.067h-9.387
		c-5.12,0-8.533-3.413-8.533-8.533S176.493,0,181.613,0H191c5.12,0,8.533,3.413,8.533,8.533S196.12,17.067,191,17.067z
		 M146.627,17.067h-9.387c-5.12,0-8.533-3.413-8.533-8.533S132.12,0,137.24,0h9.387c5.12,0,8.533,3.413,8.533,8.533
		S150.893,17.067,146.627,17.067z M101.4,17.067h-8.533c-5.12,0-8.533-3.413-8.533-8.533S87.747,0,92.867,0h8.533
		c5.12,0,8.533,3.413,8.533,8.533S106.52,17.067,101.4,17.067z M57.027,17.067H47.64c-5.12,0-8.533-3.413-8.533-8.533
		S42.52,0,47.64,0h9.387c5.12,0,8.533,3.413,8.533,8.533S61.293,17.067,57.027,17.067z"/>
	<path d="M365.933,21.333c-3.413,0-6.827-1.707-7.68-5.12c-2.56-1.707-5.12-4.267-5.12-7.68c0-5.12,3.413-8.533,8.533-8.533h12.8
		v12.8C374.467,17.92,371.053,21.333,365.933,21.333z"/>
	<path d="M365.933,112.64c-5.12,0-8.533-3.413-8.533-8.533V94.72c0-5.12,3.413-8.533,8.533-8.533s8.533,3.413,8.533,8.533v9.387
		C374.467,109.227,371.053,112.64,365.933,112.64z M365.933,67.413c-5.12,0-8.533-3.413-8.533-8.533v-9.387
		c0-5.12,3.413-8.533,8.533-8.533s8.533,3.413,8.533,8.533v9.387C374.467,63.147,371.053,67.413,365.933,67.413z"/>
	<path d="M365.933,153.6c-5.12,0-8.533-3.413-8.533-8.533V140.8c0-5.12,3.413-8.533,8.533-8.533s8.533,3.413,8.533,8.533v4.267
		C374.467,150.187,371.053,153.6,365.933,153.6z"/>
	<path d="M511,512H135.533V358.4H357.4V136.533H511V512z M152.6,494.933h341.333V153.6H374.467v221.867H152.6V494.933z"/>
</g>
<g>
</g>
<g>
</g>
<g>
</g>
<g>
</g>
<g>
</g>
<g>
</g>
<g>
</g>
<g>
</g>
<g>
</g>
<g>
</g>
<g>
</g>
<g>
</g>
<g>
</g>
<g>
</g>
<g>
</g>
</svg>
