<?xml version="1.0" encoding="iso-8859-1"?>
<!-- Generator: Adobe Illustrator 19.0.0, SVG Export Plug-In . SVG Version: 6.00 Build 0)  -->
<svg version="1.1" id="Capa_1" xmlns="http://www.w3.org/2000/svg" xmlns:xlink="http://www.w3.org/1999/xlink" x="0px" y="0px"
	 viewBox="0 0 512 512" style="enable-background:new 0 0 512 512;" xml:space="preserve">
<path style="fill:#384949;" d="M75,452c-3.838,0-7.676-1.465-10.605-4.395c-5.859-5.859-5.859-15.352,0-21.211l362-362
	c5.859-5.859,15.352-5.859,21.211,0s5.859,15.352,0,21.211l-362,362C82.676,450.535,78.838,452,75,452z"/>
<path style="fill:#293939;" d="M426.395,64.395L256,234.789v42.422L447.605,85.605c5.859-5.859,5.859-15.352,0-21.211
	S432.254,58.535,426.395,64.395z"/>
<path style="fill:#A24BDB;" d="M497,90h-60c-8.291,0-15-6.709-15-15V15c0-8.291,6.709-15,15-15h60c8.291,0,15,6.709,15,15v60
	C512,83.291,505.291,90,497,90z"/>
<path style="fill:#B760EA;" d="M75,512H15c-8.291,0-15-6.709-15-15v-60c0-8.291,6.709-15,15-15h60c8.291,0,15,6.709,15,15v60
	C90,505.291,83.291,512,75,512z"/>
<g>
</g>
<g>
</g>
<g>
</g>
<g>
</g>
<g>
</g>
<g>
</g>
<g>
</g>
<g>
</g>
<g>
</g>
<g>
</g>
<g>
</g>
<g>
</g>
<g>
</g>
<g>
</g>
<g>
</g>
</svg>
