<?xml version="1.0" encoding="iso-8859-1"?>
<!-- Generator: Adobe Illustrator 19.0.0, SVG Export Plug-In . SVG Version: 6.00 Build 0)  -->
<svg xmlns="http://www.w3.org/2000/svg" xmlns:xlink="http://www.w3.org/1999/xlink" version="1.1" id="Layer_1" x="0px" y="0px" viewBox="0 0 511.973 511.973" style="enable-background:new 0 0 511.973 511.973;" xml:space="preserve" width="512" height="512">
<g>
	<g>
		<path style="fill:#61729B;" d="M99.986,10.001l312,325.97h-132.93l60.93,134.74l-73.64,31.26l-60.93-135.27l-105.43,89.93V10.001z    "/>
	</g>
	<g>
		<path d="M159.986,119.971c-5.52,0-10,4.48-10,10s4.48,10,10,10s10-4.48,10-10S165.506,119.971,159.986,119.971z"/>
		<path d="M89.986,456.631c0,3.901,2.269,7.446,5.811,9.08c3.541,1.634,7.711,1.061,10.679-1.472l95.294-81.284l55.459,123.123    c2.241,4.974,8.035,7.216,13.025,5.098l73.64-31.26c5.16-2.191,7.519-8.207,5.204-13.325l-54.544-120.62h117.433    c4.005,0,7.623-2.389,9.196-6.072s0.797-7.949-1.972-10.842l-312-325.97c-2.825-2.95-7.161-3.888-10.95-2.366    c-3.79,1.522-6.274,5.196-6.274,9.28V456.631z M109.986,34.911l278.586,291.06H279.057c-7.247,0-12.106,7.498-9.111,14.12    l56.712,125.415l-55.211,23.437l-56.912-126.349c-2.734-6.066-10.539-7.826-15.607-3.501l-88.94,75.864V34.911z"/>
		<path d="M307.06,283.224c4.006-3.802,4.172-10.131,0.37-14.137l-111.82-117.83c-3.803-4.005-10.13-4.172-14.138-0.37    c-4.006,3.802-4.172,10.131-0.37,14.137l111.82,117.83C296.72,286.854,303.048,287.032,307.06,283.224z"/>
	</g>
</g>















</svg>
