<?xml version="1.0" encoding="iso-8859-1"?>
<!-- Generator: Adobe Illustrator 19.0.0, SVG Export Plug-In . SVG Version: 6.00 Build 0)  -->
<svg version="1.1" id="Layer_1" xmlns="http://www.w3.org/2000/svg" xmlns:xlink="http://www.w3.org/1999/xlink" x="0px" y="0px"
	 viewBox="0 0 512 512" style="enable-background:new 0 0 512 512;" xml:space="preserve">
<g transform="translate(1)">
	<polygon style="fill:#FFFFFF;" points="459.8,213.333 459.8,187.733 331.8,187.733 331.8,298.667 306.2,298.667 306.2,324.267 
		195.267,324.267 195.267,452.267 220.867,452.267 220.867,477.867 459.8,477.867 459.8,452.267 485.4,452.267 485.4,213.333 	"/>
	<g>
		<path style="fill:#7383BF;" d="M468.333,486.4h-256v-25.6h-25.6V315.733h110.933v-25.6h25.6V179.2h145.067v25.6h25.6v256h-25.6
			V486.4z M229.4,469.333h221.867v-25.6h25.6V221.867h-25.6v-25.6H340.333V307.2h-25.6v25.6H203.8v110.933h25.6V469.333z"/>
		<polygon style="fill:#7383BF;" points="297.667,59.733 297.667,34.133 58.733,34.133 58.733,59.733 33.133,59.733 33.133,298.667 
			58.733,298.667 58.733,324.267 297.667,324.267 297.667,298.667 323.267,298.667 323.267,59.733 		"/>
	</g>
	<g>
		<path style="fill:#556080;" d="M306.2,332.8h-256v-25.6H24.6v-256h25.6V25.6h256v25.6h25.6v256h-25.6V332.8z M67.267,315.733
			h221.867v-25.6h25.6V68.267h-25.6v-25.6H67.267v25.6h-25.6v221.867h25.6V315.733z"/>
		<polygon style="fill:#556080;" points="7.533,59.733 58.733,59.733 58.733,8.533 7.533,8.533 		"/>
		<path style="fill:#556080;" d="M67.267,68.267H-1V0h68.267V68.267z M16.067,51.2H50.2V17.067H16.067V51.2z"/>
		<polygon style="fill:#556080;" points="297.667,349.867 348.867,349.867 348.867,298.667 297.667,298.667 		"/>
		<path style="fill:#556080;" d="M357.4,358.4h-68.267v-68.267H357.4V358.4z M306.2,341.333h34.133V307.2H306.2V341.333z"/>
		<polygon style="fill:#556080;" points="297.667,59.733 348.867,59.733 348.867,8.533 297.667,8.533 		"/>
		<path style="fill:#556080;" d="M357.4,68.267h-68.267V0H357.4V68.267z M306.2,51.2h34.133V17.067H306.2V51.2z"/>
		<polygon style="fill:#556080;" points="7.533,349.867 58.733,349.867 58.733,298.667 7.533,298.667 		"/>
		<path style="fill:#556080;" d="M67.267,358.4H-1v-68.267h68.267V358.4z M16.067,341.333H50.2V307.2H16.067V341.333z"/>
		<polygon style="fill:#556080;" points="451.267,213.333 502.467,213.333 502.467,162.133 451.267,162.133 		"/>
		<path style="fill:#556080;" d="M511,221.867h-68.267V153.6H511V221.867z M459.8,204.8h34.133v-34.133H459.8V204.8z"/>
		<polygon style="fill:#556080;" points="161.133,503.467 212.333,503.467 212.333,452.267 161.133,452.267 		"/>
		<path style="fill:#556080;" d="M220.867,512H152.6v-68.267h68.267V512z M169.667,494.933H203.8V460.8h-34.133V494.933z"/>
		<polygon style="fill:#556080;" points="451.267,503.467 502.467,503.467 502.467,452.267 451.267,452.267 		"/>
		<path style="fill:#556080;" d="M511,512h-68.267v-68.267H511V512z M459.8,494.933h34.133V460.8H459.8V494.933z"/>
	</g>
	<path d="M67.267,68.267H-1V0h68.267V68.267z M16.067,51.2H50.2V17.067H16.067V51.2z"/>
	<path d="M357.4,358.4h-68.267v-68.267H357.4V358.4z M306.2,341.333h34.133V307.2H306.2V341.333z"/>
	<path d="M357.4,68.267h-68.267V0H357.4V68.267z M306.2,51.2h34.133V17.067H306.2V51.2z"/>
	<path d="M67.267,358.4H-1v-68.267h68.267V358.4z M16.067,341.333H50.2V307.2H16.067V341.333z"/>
	<path d="M511,221.867h-68.267V153.6H511V221.867z M459.8,204.8h34.133v-34.133H459.8V204.8z"/>
	<path d="M220.867,512H152.6v-68.267h68.267V512z M169.667,494.933H203.8V460.8h-34.133V494.933z"/>
	<path d="M511,512h-68.267v-68.267H511V512z M459.8,494.933h34.133V460.8H459.8V494.933z"/>
	<path d="M459.8,486.4h-256v-25.6h-25.6V315.733h110.933v-25.6h25.6V179.2H459.8v25.6h25.6v256h-25.6V486.4z M220.867,469.333
		h221.867v-25.6h25.6V221.867h-25.6v-25.6H331.8V307.2h-25.6v25.6H195.267v110.933h25.6V469.333z"/>
	<path d="M306.2,332.8h-256v-25.6H24.6v-256h25.6V25.6h256v25.6h25.6v256h-25.6V332.8z M67.267,315.733h221.867v-25.6h25.6V68.267
		h-25.6v-25.6H67.267v25.6h-25.6v221.867h25.6V315.733z"/>
</g>
<g>
</g>
<g>
</g>
<g>
</g>
<g>
</g>
<g>
</g>
<g>
</g>
<g>
</g>
<g>
</g>
<g>
</g>
<g>
</g>
<g>
</g>
<g>
</g>
<g>
</g>
<g>
</g>
<g>
</g>
</svg>
