<?xml version="1.0" encoding="UTF-8" standalone="no"?>
<!DOCTYPE svg PUBLIC "-//W3C//DTD SVG 1.1//EN" "http://www.w3.org/Graphics/SVG/1.1/DTD/svg11.dtd">
<svg version="1.1" xmlns="http://www.w3.org/2000/svg" xmlns:xlink="http://www.w3.org/1999/xlink" preserveAspectRatio="xMidYMid meet" viewBox="0 0 640 640" width="640" height="640"><defs><path d="M37.5 546.25C37.5 527.5 37.5 377.5 37.5 358.75C37.5 348.39 45.89 340 56.25 340C66.61 340 75 348.39 75 358.75C75 377.5 75 527.5 75 546.25C75 556.61 66.61 565 56.25 565C45.89 565 37.5 556.61 37.5 546.25Z" id="e2fvgt4YU"></path><path d="M37.5 376.84C37.5 349.37 37.5 129.58 37.5 102.11C37.5 87.13 45.89 75 56.25 75C66.61 75 75 87.13 75 102.11C75 129.58 75 349.37 75 376.84C75 391.82 66.61 403.95 56.25 403.95C45.89 403.95 37.5 391.82 37.5 376.84Z" id="eq2LyO1sK"></path><path d="M93.75 75C83.39 75 75 66.61 75 56.25C75 45.89 83.39 37.5 93.75 37.5C112.75 37.5 264.75 37.5 283.75 37.5C294.11 37.5 302.5 45.89 302.5 56.25C302.5 66.61 294.11 75 283.75 75C245.75 75 112.75 75 93.75 75Z" id="dsnUiz3Il"></path><path d="M331.14 83.69C318.06 71.9 313.08 56.14 320.02 48.44C326.96 40.74 343.15 44.04 356.23 55.82C379.9 77.14 569.22 247.67 592.89 268.99C605.97 280.77 610.94 296.53 604 304.23C597.07 311.94 580.87 308.63 567.79 296.85C520.46 254.22 354.8 105 331.14 83.69Z" id="a3fz6c7nCB"></path><path d="M565 546.25C565 527.5 565 377.5 565 358.75C565 348.39 573.39 340 583.75 340C594.11 340 602.5 348.39 602.5 358.75C602.5 377.5 602.5 527.5 602.5 546.25C602.5 556.61 594.11 565 583.75 565C573.39 565 565 556.61 565 546.25Z" id="c4pFaHwuar"></path><path d="M358.75 602.5C348.39 602.5 340 594.11 340 583.75C340 573.39 348.39 565 358.75 565C377.5 565 527.5 565 546.25 565C556.61 565 565 573.39 565 583.75C565 594.11 556.61 602.5 546.25 602.5C508.75 602.5 377.5 602.5 358.75 602.5Z" id="aoaZm1h1a"></path><path d="M93.75 602.5C83.39 602.5 75 594.11 75 583.75C75 573.39 83.39 565 93.75 565C112.75 565 264.75 565 283.75 565C294.11 565 302.5 573.39 302.5 583.75C302.5 594.11 294.11 602.5 283.75 602.5C245.75 602.5 112.75 602.5 93.75 602.5Z" id="e8OP2WNj0"></path><path d="M18.75 112.5C8.39 112.5 0 104.11 0 93.75C0 86.25 0 26.25 0 18.75C0 8.39 8.39 0 18.75 0C26.25 0 86.25 0 93.75 0C104.11 0 112.5 8.39 112.5 18.75C112.5 26.25 112.5 86.25 112.5 93.75C112.5 104.11 104.11 112.5 93.75 112.5C78.75 112.5 26.25 112.5 18.75 112.5Z" id="c3Q6WFzeg"></path><path d="M546.25 377.5C535.89 377.5 527.5 369.11 527.5 358.75C527.5 351.25 527.5 291.25 527.5 283.75C527.5 273.39 535.89 265 546.25 265C553.75 265 613.75 265 621.25 265C631.61 265 640 273.39 640 283.75C640 291.25 640 351.25 640 358.75C640 369.11 631.61 377.5 621.25 377.5C606.25 377.5 553.75 377.5 546.25 377.5Z" id="b15T0plpA0"></path><path d="M546.25 640C535.89 640 527.5 631.61 527.5 621.25C527.5 613.75 527.5 553.75 527.5 546.25C527.5 535.89 535.89 527.5 546.25 527.5C553.75 527.5 613.75 527.5 621.25 527.5C631.61 527.5 640 535.89 640 546.25C640 553.75 640 613.75 640 621.25C640 631.61 631.61 640 621.25 640C606.25 640 553.75 640 546.25 640Z" id="aHExXgaLl"></path><path d="M18.75 640C8.39 640 0 631.61 0 621.25C0 613.75 0 553.75 0 546.25C0 535.89 8.39 527.5 18.75 527.5C26.25 527.5 86.25 527.5 93.75 527.5C104.11 527.5 112.5 535.89 112.5 546.25C112.5 553.75 112.5 613.75 112.5 621.25C112.5 631.61 104.11 640 93.75 640C78.75 640 26.25 640 18.75 640Z" id="bB0FEQLf7"></path><path d="M283.75 112.5C273.39 112.5 265 104.11 265 93.75C265 86.25 265 26.25 265 18.75C265 8.39 273.39 0 283.75 0C291.25 0 351.25 0 358.75 0C369.11 0 377.5 8.39 377.5 18.75C377.5 26.25 377.5 86.25 377.5 93.75C377.5 104.11 369.11 112.5 358.75 112.5C343.75 112.5 291.25 112.5 283.75 112.5Z" id="e3E0iVhTZ0"></path><path d="M283.75 640C273.39 640 265 631.61 265 621.25C265 613.75 265 553.75 265 546.25C265 535.89 273.39 527.5 283.75 527.5C291.25 527.5 351.25 527.5 358.75 527.5C369.11 527.5 377.5 535.89 377.5 546.25C377.5 553.75 377.5 613.75 377.5 621.25C377.5 631.61 369.11 640 358.75 640C343.75 640 291.25 640 283.75 640Z" id="h2wWPxUcIU"></path><path d="M321.25 527.5L321.25 640C343.75 640 356.25 640 358.75 640C369.11 640 377.5 631.61 377.5 621.25C377.5 613.75 377.5 553.75 377.5 546.25C377.5 535.89 369.11 527.5 358.75 527.5C353.75 527.5 341.25 527.5 321.25 527.5Z" id="c1JhRqidm"></path><path d="M321.25 0L321.25 112.5C343.75 112.5 356.25 112.5 358.75 112.5C369.11 112.5 377.5 104.11 377.5 93.75C377.5 86.25 377.5 26.25 377.5 18.75C377.5 8.39 369.11 0 358.75 0C353.75 0 341.25 0 321.25 0Z" id="a4FnQcdItL"></path></defs><g><g><use xlink:href="#e2fvgt4YU" opacity="1" fill="#384949" fill-opacity="1"></use><g><use xlink:href="#e2fvgt4YU" opacity="1" fill-opacity="0" stroke="#000000" stroke-width="1" stroke-opacity="0"></use></g></g><g><use xlink:href="#eq2LyO1sK" opacity="1" fill="#384949" fill-opacity="1"></use><g><use xlink:href="#eq2LyO1sK" opacity="1" fill-opacity="0" stroke="#000000" stroke-width="1" stroke-opacity="0"></use></g></g><g><use xlink:href="#dsnUiz3Il" opacity="1" fill="#384949" fill-opacity="1"></use><g><use xlink:href="#dsnUiz3Il" opacity="1" fill-opacity="0" stroke="#000000" stroke-width="1" stroke-opacity="0"></use></g></g><g><use xlink:href="#a3fz6c7nCB" opacity="1" fill="#293939" fill-opacity="1"></use><g><use xlink:href="#a3fz6c7nCB" opacity="1" fill-opacity="0" stroke="#000000" stroke-width="1" stroke-opacity="0"></use></g></g><g><use xlink:href="#c4pFaHwuar" opacity="1" fill="#293939" fill-opacity="1"></use><g><use xlink:href="#c4pFaHwuar" opacity="1" fill-opacity="0" stroke="#000000" stroke-width="1" stroke-opacity="0"></use></g></g><g><use xlink:href="#aoaZm1h1a" opacity="1" fill="#293939" fill-opacity="1"></use><g><use xlink:href="#aoaZm1h1a" opacity="1" fill-opacity="0" stroke="#000000" stroke-width="1" stroke-opacity="0"></use></g></g><g><use xlink:href="#e8OP2WNj0" opacity="1" fill="#384949" fill-opacity="1"></use><g><use xlink:href="#e8OP2WNj0" opacity="1" fill-opacity="0" stroke="#000000" stroke-width="1" stroke-opacity="0"></use></g></g><g><use xlink:href="#c3Q6WFzeg" opacity="1" fill="#b760ea" fill-opacity="1"></use><g><use xlink:href="#c3Q6WFzeg" opacity="1" fill-opacity="0" stroke="#000000" stroke-width="1" stroke-opacity="0"></use></g></g><g><use xlink:href="#b15T0plpA0" opacity="1" fill="#a24bdb" fill-opacity="1"></use><g><use xlink:href="#b15T0plpA0" opacity="1" fill-opacity="0" stroke="#000000" stroke-width="1" stroke-opacity="0"></use></g></g><g><use xlink:href="#aHExXgaLl" opacity="1" fill="#a24bdb" fill-opacity="1"></use><g><use xlink:href="#aHExXgaLl" opacity="1" fill-opacity="0" stroke="#000000" stroke-width="1" stroke-opacity="0"></use></g></g><g><use xlink:href="#bB0FEQLf7" opacity="1" fill="#b760ea" fill-opacity="1"></use><g><use xlink:href="#bB0FEQLf7" opacity="1" fill-opacity="0" stroke="#000000" stroke-width="1" stroke-opacity="0"></use></g></g><g><use xlink:href="#e3E0iVhTZ0" opacity="1" fill="#b760ea" fill-opacity="1"></use><g><use xlink:href="#e3E0iVhTZ0" opacity="1" fill-opacity="0" stroke="#000000" stroke-width="1" stroke-opacity="0"></use></g></g><g><use xlink:href="#h2wWPxUcIU" opacity="1" fill="#b760ea" fill-opacity="1"></use><g><use xlink:href="#h2wWPxUcIU" opacity="1" fill-opacity="0" stroke="#000000" stroke-width="1" stroke-opacity="0"></use></g></g><g><use xlink:href="#c1JhRqidm" opacity="1" fill="#a24bdb" fill-opacity="1"></use><g><use xlink:href="#c1JhRqidm" opacity="1" fill-opacity="0" stroke="#000000" stroke-width="1" stroke-opacity="0"></use></g></g><g><use xlink:href="#a4FnQcdItL" opacity="1" fill="#a24bdb" fill-opacity="1"></use><g><use xlink:href="#a4FnQcdItL" opacity="1" fill-opacity="0" stroke="#000000" stroke-width="1" stroke-opacity="0"></use></g></g></g></svg>