<?xml version="1.0" encoding="iso-8859-1"?>
<!-- Generator: Adobe Illustrator 19.0.0, SVG Export Plug-In . SVG Version: 6.00 Build 0)  -->
<svg version="1.1" id="Capa_1" xmlns="http://www.w3.org/2000/svg" xmlns:xlink="http://www.w3.org/1999/xlink" x="0px" y="0px"
	 viewBox="0 0 511.983 511.983" style="enable-background:new 0 0 511.983 511.983;" xml:space="preserve">
<path style="fill:#2196F3;" d="M507.328,215.175l-234.667-160c-4.873-3.311-11.507-2.045-14.817,2.828
	c-1.199,1.765-1.841,3.849-1.844,5.983v96.213C91.947,166.983,2.133,329.33,0,447.453v0.533c0,5.891,4.776,10.667,10.667,10.667l0,0
	c5.825,0.001,10.573-4.672,10.667-10.496v-0.619C22.528,418.887,134.656,295.303,256,288.306v95.68
	c0.007,5.891,4.788,10.661,10.679,10.655c2.134-0.002,4.218-0.645,5.983-1.844l234.667-160c4.866-3.321,6.119-9.957,2.798-14.823
	C509.376,216.875,508.427,215.925,507.328,215.175z"/>
<g>
</g>
<g>
</g>
<g>
</g>
<g>
</g>
<g>
</g>
<g>
</g>
<g>
</g>
<g>
</g>
<g>
</g>
<g>
</g>
<g>
</g>
<g>
</g>
<g>
</g>
<g>
</g>
<g>
</g>
</svg>
