<?xml version="1.0" encoding="iso-8859-1"?>
<!-- Generator: Adobe Illustrator 19.0.0, SVG Export Plug-In . SVG Version: 6.00 Build 0)  -->
<svg xmlns="http://www.w3.org/2000/svg" xmlns:xlink="http://www.w3.org/1999/xlink" version="1.1" id="Layer_1" x="0px" y="0px" viewBox="0 0 512.002 512.002" style="enable-background:new 0 0 512.002 512.002;" xml:space="preserve" width="512" height="512">
<g>
	<g>
		<path style="fill:#61729B;" d="M229.406,130.02L463.596,371h-99.57l47.16,107.48L355.776,502l-47.17-108.06l-79.2,67.68V130.02z"/>
	</g>
	<g>
		<g>
			<path d="M274.276,238.48c5.53,0,10-4.48,10-10c0-5.53-4.47-10-10-10c-5.52,0-10,4.47-10,10     C264.276,234,268.756,238.48,274.276,238.48z"/>
			<path d="M58.406,20h4c5.523,0,10-4.477,10-10s-4.477-10-10-10h-14c-5.523,0-10,4.477-10,10v26c0,5.523,4.477,10,10,10     s10-4.477,10-10V20z"/>
			<path d="M378.406,10c0-5.523-4.477-10-10-10h-20c-5.523,0-10,4.477-10,10s4.477,10,10,10h10v10c0,5.523,4.477,10,10,10     s10-4.477,10-10V10z"/>
			<path d="M58.406,76c0-5.523-4.477-10-10-10s-10,4.477-10,10v40c0,5.523,4.477,10,10,10s10-4.477,10-10V76z"/>
			<path d="M58.406,156c0-5.523-4.477-10-10-10s-10,4.477-10,10v40c0,5.523,4.477,10,10,10s10-4.477,10-10V156z"/>
			<path d="M48.406,226c-5.523,0-10,4.477-10,10v40c0,5.523,4.477,10,10,10s10-4.477,10-10v-40     C58.406,230.477,53.929,226,48.406,226z"/>
			<path d="M48.406,352h14c5.523,0,10-4.477,10-10s-4.477-10-10-10h-4v-16c0-5.523-4.477-10-10-10s-10,4.477-10,10v26     C38.406,347.523,42.883,352,48.406,352z"/>
			<path d="M148.406,352c5.523,0,10-4.477,10-10s-4.477-10-10-10h-40c-5.523,0-10,4.477-10,10s4.477,10,10,10H148.406z"/>
			<path d="M472.807,374.893c1.564-3.702,0.761-7.98-2.04-10.862l-92.361-95.039V236c0-5.523-4.477-10-10-10s-10,4.477-10,10v12.412     L236.577,123.051c-2.837-2.919-7.159-3.827-10.932-2.297c-3.772,1.531-6.239,5.195-6.239,9.266V332h-31c-5.523,0-10,4.477-10,10     s4.477,10,10,10h31v109.62c0,3.902,2.271,7.449,5.814,9.082c3.545,1.635,7.716,1.055,10.682-1.48l68.938-58.911L346.611,506     c2.205,5.051,8.049,7.337,13.072,5.205l55.41-23.52c5.127-2.177,7.487-8.127,5.25-13.223L379.334,381h84.262     C467.614,381,471.243,378.594,472.807,374.893z M364.026,361c-7.206,0-12.055,7.414-9.157,14.018l43.093,98.211l-36.981,15.698     l-43.209-98.988c-2.69-6.163-10.569-7.954-15.662-3.602l-62.704,53.583V154.659L439.933,361H364.026z"/>
			<path d="M364.849,332.804c3.852,3.957,10.182,4.045,14.141,0.193c3.958-3.852,4.044-10.183,0.193-14.141l-66.85-68.7     c-3.852-3.957-10.182-4.044-14.141-0.193c-3.958,3.852-4.044,10.183-0.193,14.141L364.849,332.804z"/>
			<path d="M378.406,76c0-5.523-4.477-10-10-10s-10,4.477-10,10v40c0,5.523,4.477,10,10,10s10-4.477,10-10V76z"/>
			<path d="M368.406,146c-5.523,0-10,4.477-10,10v40c0,5.523,4.477,10,10,10s10-4.477,10-10v-40     C378.406,150.477,373.929,146,368.406,146z"/>
		</g>
		<path d="M148.406,0h-40c-5.523,0-10,4.477-10,10s4.477,10,10,10h40c5.523,0,10-4.477,10-10S153.929,0,148.406,0z"/>
		<path d="M188.406,0c-5.523,0-10,4.477-10,10s4.477,10,10,10h40c5.523,0,10-4.477,10-10s-4.477-10-10-10H188.406z"/>
		<path d="M268.406,0c-5.523,0-10,4.477-10,10s4.477,10,10,10h40c5.523,0,10-4.477,10-10s-4.477-10-10-10H268.406z"/>
	</g>
</g>















</svg>
