<?xml version="1.0" encoding="iso-8859-1"?>
<!-- Generator: Adobe Illustrator 19.0.0, SVG Export Plug-In . SVG Version: 6.00 Build 0)  -->
<svg version="1.1" id="Layer_1" xmlns="http://www.w3.org/2000/svg" xmlns:xlink="http://www.w3.org/1999/xlink" x="0px" y="0px"
	 viewBox="0 0 509.287 509.287" style="enable-background:new 0 0 509.287 509.287;" xml:space="preserve">
<circle style="fill:#4F5565;" cx="254.644" cy="254.644" r="254.644"/>
<path style="fill:#FFFFFF;" d="M411.634,174.962c-8.816,0-17.632,1.695-25.43,4.408c4.747-18.649-1.695-39.332-18.31-51.878
	c-12.885-9.833-29.16-12.207-43.74-8.138c-12.207-46.114-54.252-80.021-104.095-80.021c-59.338,0-107.486,48.148-107.486,107.486
	c0,10.511,1.695,20.683,4.408,30.517c-6.103-1.695-12.546-2.374-19.327-2.374c-44.758,0-80.699,36.281-80.699,80.699
	c0,44.758,35.942,80.699,80.699,80.699h313.981c44.419,0,80.699-36.281,80.699-80.699S456.392,174.962,411.634,174.962z"/>
<polygon style="fill:#FBD303;" points="351.279,308.895 254.644,211.921 158.008,308.895 206.495,308.895 206.495,445.881 
	302.792,445.881 302.792,308.895 "/>
<g>
</g>
<g>
</g>
<g>
</g>
<g>
</g>
<g>
</g>
<g>
</g>
<g>
</g>
<g>
</g>
<g>
</g>
<g>
</g>
<g>
</g>
<g>
</g>
<g>
</g>
<g>
</g>
<g>
</g>
</svg>
